<svg width="266" height="69" viewBox="0 0 266 69" fill="none" xmlns="http://www.w3.org/2000/svg">
	<path d="M244 58C244 51.9249 248.925 47 255 47C261.075 47 266 51.9249 266 58V69H244V58Z" fill="#5558AF"/>
	<path d="M195 41C195 34.9249 199.925 30 206 30C212.075 30 217 34.9249 217 41V69H195V41Z" fill="#5558AF" fill-opacity="0.2"/>
	<path d="M147 26C147 19.9249 151.925 15 158 15C164.075 15 169 19.9249 169 26V69H147V26Z" fill="#5558AF" fill-opacity="0.2"/>
	<path d="M98 11C98 4.92487 102.925 0 109 0C115.075 0 120 4.92487 120 11V69H98V11Z" fill="#5558AF" fill-opacity="0.2"/>
	<path d="M48 41C48 34.9249 52.9249 30 59 30C65.0751 30 70 34.9249 70 41V69H48V41Z" fill="#5558AF" fill-opacity="0.2"/>
	<path d="M0 57C0 50.9249 4.92487 46 11 46C17.0751 46 22 50.9249 22 57V69H0V57Z" fill="#5558AF" fill-opacity="0.2"/>
</svg>
