<svg width="251" height="167" viewBox="0 0 251 167" fill="none" xmlns="http://www.w3.org/2000/svg">
<path d="M6.65625 54.2568H25.3359V51.585H6.65625V54.2568ZM25.3359 39.585H19.9922V31.5693H12V39.585H6.65625L15.9844 48.9131L25.3359 39.585Z" fill="white"/>
<path fill-rule="evenodd" clip-rule="evenodd" d="M117.177 132.543C157.525 132.543 179.796 164.71 205.529 140.264C231.263 115.817 168.533 44.9062 128.186 44.9062C87.8386 44.9062 30.684 75.4695 30.684 115.817C30.684 156.164 76.8304 132.543 117.177 132.543Z" fill="#F1F8FF" fill-opacity="0.4"/>
<path fill-rule="evenodd" clip-rule="evenodd" d="M204.376 81.7576C210.041 87.4227 208.662 95.0556 215.7 95.2445C222.738 95.4333 223.862 76.6927 218.197 71.0276C212.532 65.3625 200.226 61.6185 194.574 67.2701C188.923 72.9217 198.711 76.0925 204.376 81.7576Z" fill="#F1F8FF" fill-opacity="0.4"/>
<path fill-rule="evenodd" clip-rule="evenodd" d="M197.426 136.355C204.464 136.544 205.589 117.803 199.924 112.138C194.258 106.473 190.389 136.166 197.426 136.355Z" fill="white"/>
<path fill-rule="evenodd" clip-rule="evenodd" d="M61.3439 23.5903C67.1676 18.3429 58.5349 15.9589 60.7731 9.28401C63.0113 2.60911 59.0585 -0.0649587 51.9846 3.69629C44.9107 7.45755 37.7324 18.1314 41.4847 25.1884C45.237 32.2454 55.5202 28.8377 61.3439 23.5903Z" fill="#F1F8FF" fill-opacity="0.4"/>
<path fill-rule="evenodd" clip-rule="evenodd" d="M64.0087 152.458H37.802V110.721H64.0087V152.458Z" fill="#F5F5F5" stroke="#32373F"/>
<path fill-rule="evenodd" clip-rule="evenodd" d="M90.8623 152.458H64.0086V110.721H90.8623V152.458Z" fill="white" stroke="#32373F"/>
<path fill-rule="evenodd" clip-rule="evenodd" d="M78.0425 60.896L79.1574 83.4836L84.3915 100.044H74.9695L70.0669 85.7753L68.5381 69.5585L78.0425 60.896Z" fill="white" stroke="#32373F"/>
<path fill-rule="evenodd" clip-rule="evenodd" d="M78.5018 139.516L76.6266 147.863L82.9223 148.575L84.7151 140.357L78.5018 139.516Z" fill="white" stroke="#0138A7"/>
<path fill-rule="evenodd" clip-rule="evenodd" d="M78.5718 96.0517H93.5031C93.5031 96.0517 102.598 95.544 103.141 102.986C103.684 110.429 89.8014 131.708 87.6285 143.075L75.1406 142.049L84.1363 111.13L61.7716 111.257C60.1148 111.266 58.4632 111.026 56.8984 110.485C52.5448 108.98 45.8972 106.823 49.5208 94.8677L78.5718 96.0517Z" fill="#F5F5F5" stroke="#32373F"/>
<path fill-rule="evenodd" clip-rule="evenodd" d="M66.8284 139.516L63.6851 150.086L70.335 150.84L73.3912 140.407L66.8284 139.516Z" fill="white" stroke="#0138A7"/>
<path fill-rule="evenodd" clip-rule="evenodd" d="M60.6072 51.8369C60.2634 52.1603 44.9198 55.973 44.9198 55.973L48.2024 64.4549L64.9792 63.2254L60.6072 51.8369Z" fill="white" stroke="#32373F"/>
<path fill-rule="evenodd" clip-rule="evenodd" d="M66.5544 54.1021C66.5544 54.1021 76.3899 57.6474 77.9208 60.8565C77.3906 65.3884 75.7767 69.7462 73.1137 73.4759C69.8479 78.048 65.8054 85.9102 66.5544 96.1621H38.1255C38.1255 96.1621 39.6563 67.319 48.0743 56.2528L66.5544 54.1021Z" fill="white" stroke="#32373F"/>
<path fill-rule="evenodd" clip-rule="evenodd" d="M63.5227 58.5266C60.7865 57.9604 59.0228 55.2592 59.5828 52.493L61.2202 44.3955L71.1265 46.4439L69.4881 54.5413C68.929 57.3084 66.2581 59.0921 63.5227 58.5266Z" fill="white" stroke="#32373F"/>
<path fill-rule="evenodd" clip-rule="evenodd" d="M60.4495 47.3076C60.4495 47.3076 61.5156 54.0077 66.6944 54.4117C71.228 54.7659 70.7913 48.1621 70.7913 48.1621L60.4495 47.3076Z" fill="#F5F5F5"/>
<path fill-rule="evenodd" clip-rule="evenodd" d="M66.4558 50.6529L65.606 50.4484C61.3505 49.4245 58.6991 45.0116 59.6847 40.5909L60.8071 35.5543C61.7919 31.1336 66.0408 28.3792 70.2963 29.4031L71.1469 29.6067C75.4024 30.6306 78.0531 35.0445 77.0682 39.4652L75.9459 44.5017C74.9602 48.9224 70.7122 51.6768 66.4558 50.6529Z" fill="white" stroke="#32373F"/>
<path fill-rule="evenodd" clip-rule="evenodd" d="M62.1015 44.1681C62.1799 45.1915 62.7039 46.1692 63.5701 46.7356C66.0667 48.3666 67.9757 44.2301 71.6641 44.9608C71.6641 44.9608 73.1048 45.1794 73.3947 46.7648C73.6845 48.3511 75.6973 45.6447 76.1413 43.7486C76.5844 41.8524 76.8062 53.0591 67.7137 52.1029C67.7137 52.1029 63.1296 51.9574 60.0393 47.3312C59.698 46.8225 59.4996 46.2277 59.4822 45.6175C59.4552 44.7112 59.5866 43.3453 60.4545 42.3675C60.7723 42.0095 61.3807 42.0671 61.6271 42.4768C61.8378 42.8288 62.038 43.3651 62.1015 44.1681Z" fill="#32373F"/>
<path fill-rule="evenodd" clip-rule="evenodd" d="M65.1711 33.2178C65.1711 33.2178 74.7283 42.3219 81.8032 35.6398C81.8032 35.6398 78.6385 34.7915 77.3317 32.6091C74.9492 28.6297 68.1063 23.1581 62.6325 29.4942C62.6325 29.4942 55.9721 28.4571 57.882 38.7855C58.772 42.8025 59.4372 44.8848 59.8776 45.0324C60.3467 45.1897 61.0458 43.5647 61.9748 40.1575C61.9748 40.1575 65.8185 38.8791 65.1711 33.2178Z" fill="#32373F"/>
<path fill-rule="evenodd" clip-rule="evenodd" d="M67.0415 58.3076L63.038 58.3839L65.8446 64.1313L68.8617 58.6211L67.0415 58.3076Z" fill="#32373F"/>
<path fill-rule="evenodd" clip-rule="evenodd" d="M59.2263 52.4698L64.6555 58.5919L61.1253 62.5139L54.6258 53.8795C54.6258 53.8795 56.2875 51.287 59.2263 52.4698Z" fill="white" stroke="#32373F"/>
<path fill-rule="evenodd" clip-rule="evenodd" d="M67.244 58.3915L70.0908 61.8667L72.097 56.4502C72.097 56.4502 71.5684 54.0153 69.9324 54.4856L67.244 58.3915Z" fill="white" stroke="#32373F"/>
<path fill-rule="evenodd" clip-rule="evenodd" d="M66.005 62.8705C66.005 62.8705 70.0225 73.2807 69.0265 88.0448L65.0666 91.6325L60.4496 87.2109L65.4287 62.1904L66.005 62.8705Z" fill="#32373F"/>
<path fill-rule="evenodd" clip-rule="evenodd" d="M58.2088 87.1025L66.9872 89.8927L67.5675 94.8675L55.9201 91.5125L58.2088 87.1025Z" fill="#F5F5F5" stroke="#32373F"/>
<path fill-rule="evenodd" clip-rule="evenodd" d="M65.3028 93.2502C65.3028 96.2877 67.7654 98.7503 70.8029 98.7503C73.8396 98.7503 76.3031 96.2877 76.3031 93.2502C76.3031 90.2126 73.8396 87.75 70.8029 87.75C67.7654 87.75 65.3028 90.2126 65.3028 93.2502Z" fill="#F5F5F5" stroke="#32373F"/>
<path fill-rule="evenodd" clip-rule="evenodd" d="M81.5332 96.0499C81.5332 96.0499 90.6279 95.543 91.1716 102.974C91.7144 110.406 76.8137 133.019 74.6416 144.369L62.1526 143.343L72.1663 111.107L49.8011 111.233C48.1443 111.243 46.4927 111.002 44.9278 110.462C40.5742 108.959 33.9265 106.806 37.5501 94.8677L66.6025 96.0499H81.5332Z" fill="#F5F5F5" stroke="#32373F"/>
<path d="M43.4523 77.6243C44.0713 77.9816 46.2751 75.3233 48.3747 71.6868C50.4742 68.0503 51.6745 64.8126 51.0555 64.4552C50.4365 64.0978 48.2327 66.7561 46.1331 70.3926C44.0335 74.0292 42.8333 77.2669 43.4523 77.6243Z" fill="#EAF4FF"/>
<path d="M43.4523 77.6243C44.0713 77.9816 46.2751 75.3233 48.3747 71.6868C50.4742 68.0503 51.6745 64.8126 51.0555 64.4552C50.4365 64.0978 48.2327 66.7561 46.1331 70.3926C44.0335 74.0292 42.8333 77.2669 43.4523 77.6243Z" fill="#E1EDF8"/>
<path d="M44.1158 90.4252C43.9308 91.1156 47.0689 92.5563 51.1249 93.6431C55.181 94.7299 58.619 95.0513 58.804 94.3609C58.989 93.6705 55.8509 92.2298 51.7948 91.143C47.7388 90.0562 44.3008 89.7348 44.1158 90.4252Z" fill="#F5F5F5"/>
<path fill-rule="evenodd" clip-rule="evenodd" d="M51.4654 64.0358L42.0067 79.3788L64.6555 87.4924L61.5532 94.2209C61.5532 94.2209 42.1886 92.0389 32.8299 84.8C31.969 84.1338 31.5415 83.0532 31.6803 81.97C32.1206 78.5137 34.0027 70.1076 42.0024 58.1717C43.632 55.7405 46.8705 55.0051 49.3972 56.4733C52.0299 58.003 52.9502 61.3711 51.4654 64.0358Z" fill="white" stroke="#32373F"/>
<path fill-rule="evenodd" clip-rule="evenodd" d="M81.4663 94.2207H64.001C63.4684 94.2207 63.038 94.655 63.038 95.1913C63.038 95.7268 63.4684 96.1619 64.001 96.1619H81.8032L81.4663 94.2207Z" fill="#32373F"/>
<path fill-rule="evenodd" clip-rule="evenodd" d="M189.218 156.34H163.982V114.28H189.218V156.34Z" fill="#F5F5F5" stroke="#32373F"/>
<path fill-rule="evenodd" clip-rule="evenodd" d="M163.982 156.34H138.746V114.28H163.982V156.34Z" fill="white" stroke="#32373F"/>
<path fill-rule="evenodd" clip-rule="evenodd" d="M161.796 74.4844L158.805 89.1134L168.152 90.3378C168.152 90.3378 168.961 75.1354 168.152 75.0568C167.342 74.9774 161.796 74.4844 161.796 74.4844Z" fill="white" stroke="#32373F"/>
<path fill-rule="evenodd" clip-rule="evenodd" d="M170.776 59.9253C170.776 59.9253 161.18 61.2583 159.452 75.6153C159.452 75.6153 162.509 78.8521 166.411 77.8515L170.776 59.9253Z" fill="#32373F"/>
<path fill-rule="evenodd" clip-rule="evenodd" d="M174.675 59.3222C174.675 59.3222 183.959 58.4118 187.23 64.8832C190.502 71.3546 180.96 78.0965 184.231 92.9264L163.65 91.8476V78.7704C163.65 78.7704 159.898 73.3608 165.213 67.5633C165.213 67.5633 165.529 58.7488 174.675 59.3222Z" fill="#32373F"/>
<path fill-rule="evenodd" clip-rule="evenodd" d="M135.959 99.2915C134.178 105.704 126.775 147.604 126.775 147.604H132.709L136.2 130.948C136.2 130.948 141.125 125.49 142.634 113.891L163.335 111.435L145.68 95.3267C140.388 93.6939 137.147 95.0155 135.959 99.2915Z" fill="white" stroke="#32373F"/>
<path fill-rule="evenodd" clip-rule="evenodd" d="M157.996 110.596C157.996 110.596 154.495 110.502 148.278 108.52C142.061 106.537 137.629 108.636 140.079 115.634C142.527 122.631 154.888 155.046 154.888 155.046L159.569 153.646L155.527 132.66C155.527 132.66 154.575 122.248 150.184 116.142C150.184 116.142 159.426 116.602 162.579 116.118C165.734 115.634 157.996 110.596 157.996 110.596Z" fill="white" stroke="#32373F"/>
<path fill-rule="evenodd" clip-rule="evenodd" d="M184.357 92.9191C184.357 92.9191 191.846 102.336 182.837 111.577C182.837 111.577 178.199 116.974 157.769 116.132C157.769 116.132 152.414 98.0377 141.011 93.1709L164.6 90.0146L184.357 92.9191Z" fill="#32373F" stroke="#32373F"/>
<path fill-rule="evenodd" clip-rule="evenodd" d="M174.342 35.1839C174.342 35.1839 171.874 25.3623 180.433 25.3068C186.768 25.2658 188.651 32.6557 180.885 37.6011L174.342 35.1839Z" fill="#32373F"/>
<path fill-rule="evenodd" clip-rule="evenodd" d="M180.872 39.5426C180.872 39.5426 182.384 35.5766 178.076 33.5671C173.767 31.5577 172.394 36.3111 172.394 36.3111L180.872 39.5426Z" fill="white"/>
<path fill-rule="evenodd" clip-rule="evenodd" d="M164.895 37.1194C169.168 32.4214 176.662 32.6814 180.83 37.341C184.999 42.0014 178.865 50.0575 178.865 50.0575L178.231 45.5L175.748 41.8387L172.192 40.4168L169.403 40.609L167.042 40.9123L165.137 41.7095L164.383 48.3829C164.383 48.3829 158.057 44.639 164.895 37.1194Z" fill="#32373F"/>
<path fill-rule="evenodd" clip-rule="evenodd" d="M170.898 62.5139L177.894 61.612L176.478 50.543L169.482 51.4449L170.898 62.5139Z" fill="white" stroke="#32373F"/>
<path fill-rule="evenodd" clip-rule="evenodd" d="M177.247 53.7815C177.247 53.7815 176.478 57.7482 173.214 58.5452C172.198 58.7923 171.088 58.5087 170.467 57.687C170.298 57.4637 170.172 57.2079 170.135 56.9218C169.984 55.776 173.079 53.7783 173.079 53.7783L177.247 53.7815Z" fill="#F5F5F5"/>
<path fill-rule="evenodd" clip-rule="evenodd" d="M172.389 56.6285L172.749 56.5829C176.79 56.0601 179.646 52.3418 179.127 48.2758L178.715 45.0486C178.197 40.9826 174.499 38.1104 170.458 38.6332L170.098 38.6788C166.056 39.2016 163.2 42.9199 163.72 46.9867L164.132 50.2132C164.65 54.2792 168.348 57.1514 172.389 56.6285Z" fill="white" stroke="#32373F"/>
<path fill-rule="evenodd" clip-rule="evenodd" d="M173.37 40.2448C173.37 40.2448 173.041 35.9738 177.576 39.9246C181.073 42.9737 179.847 46.4505 179.027 47.6307C178.784 47.98 178.421 47.6307 178.421 47.6307C178.421 47.6307 173.242 45.9673 173.37 40.2448Z" fill="#32373F"/>
<path fill-rule="evenodd" clip-rule="evenodd" d="M175.629 44.7192L175.865 46.5479C176.394 49.1316 177.488 48.3494 177.894 47.2327L175.629 44.7192Z" fill="#32373F"/>
<path fill-rule="evenodd" clip-rule="evenodd" d="M163.011 43.7805C163.011 43.7805 168.188 47.6043 175.781 41.9393C181.016 38.0341 173.101 36.6304 173.101 36.6304L165.721 38.1315L163.011 43.7805Z" fill="#32373F"/>
<path fill-rule="evenodd" clip-rule="evenodd" d="M177.894 61.6297C177.894 61.6297 173.479 69.6992 170.346 67.2156C166.965 64.5351 174.597 59.2783 174.597 59.2783L177.894 61.6297Z" fill="white"/>
<path fill-rule="evenodd" clip-rule="evenodd" d="M175.923 77.7197C175.923 77.7197 173.181 82.8239 171.304 86.834L151.318 85.6686C151.318 85.6686 147.348 82.3871 144.246 85.158L147.312 88.8763L172.332 94.473C173.287 94.6861 174.283 94.4116 174.993 93.7338C177.209 91.621 182.021 86.6914 184.365 81.6708L175.923 77.7197Z" fill="white" stroke="#32373F"/>
<path fill-rule="evenodd" clip-rule="evenodd" d="M149.102 93.25H165.964C166.477 93.25 166.894 93.6845 166.894 94.2202C166.894 94.7567 166.477 95.1912 165.964 95.1912H148.776L149.102 93.25Z" fill="#32373F"/>
<path fill-rule="evenodd" clip-rule="evenodd" d="M184.543 61.7214C184.876 61.8676 196.007 67.3154 185.057 84.1905C185.057 84.1905 178.064 84.3079 174.012 79.1157C174.012 79.1157 175.358 57.7034 184.543 61.7214Z" fill="#32373F"/>
<path fill-rule="evenodd" clip-rule="evenodd" d="M133.855 145.763C133.825 145.295 133.412 145.01 133.027 145.205C132.272 145.587 131.003 145.954 129.435 145.344C127.805 144.712 127.442 143.534 127.396 142.748C127.373 142.335 127.065 142.042 126.705 142.116L115.16 144.508C114.458 144.652 113.819 145.109 113.384 145.776C112.975 146.402 113.231 147.268 113.871 147.425L131.557 151.779C132.253 151.95 132.967 151.407 133.121 150.589L133.879 146.574C133.892 146.508 133.895 146.44 133.892 146.373L133.855 145.763Z" fill="#32373F"/>
<path fill-rule="evenodd" clip-rule="evenodd" d="M123.314 69.9551H147.928C148.736 69.9551 149.435 70.5222 149.603 71.3158L154.238 93.1141C154.465 94.184 153.651 95.1911 152.56 95.1911H127.538C126.717 95.1911 126.011 94.6077 125.855 93.8002L121.631 72.0027C121.425 70.941 122.236 69.9551 123.314 69.9551Z" fill="#F5F5F5" stroke="#32373F"/>
<path fill-rule="evenodd" clip-rule="evenodd" d="M139.393 82.7354C139.393 84.2548 138.161 85.485 136.643 85.485C135.124 85.485 133.893 84.2548 133.893 82.7354C133.893 81.2168 135.124 79.9849 136.643 79.9849C138.161 79.9849 139.393 81.2168 139.393 82.7354Z" fill="#FFFFFE" stroke="#32373F"/>
<path fill-rule="evenodd" clip-rule="evenodd" d="M113.328 69.9551H87.4953C86.645 69.9551 85.9124 70.5436 85.7353 71.3675L80.8731 94.0039C80.6332 95.1153 81.487 96.1617 82.6323 96.1617H108.894C109.756 96.1617 110.497 95.5553 110.661 94.717L115.094 72.0805C115.31 70.9785 114.46 69.9551 113.328 69.9551Z" fill="#32373F" stroke="#32373F"/>
<path fill-rule="evenodd" clip-rule="evenodd" d="M96.3394 83.0583C96.3394 84.578 97.5702 85.8088 99.0891 85.8088C100.608 85.8088 101.84 84.578 101.84 83.0583C101.84 81.5402 100.608 80.3086 99.0891 80.3086C97.5702 80.3086 96.3394 81.5402 96.3394 83.0583Z" fill="#FFFFFE" stroke="#32373F"/>
<path d="M117.772 11.0005L119.669 12.9055H127.325C127.851 12.9055 128.298 13.0893 128.668 13.4569C129.037 13.8245 129.222 14.2701 129.222 14.7937V24.3019C129.222 24.8254 129.037 25.2738 128.668 25.647C128.298 26.0202 127.851 26.2068 127.325 26.2068H112.03C111.504 26.2068 111.056 26.0202 110.687 25.647C110.318 25.2738 110.133 24.8254 110.133 24.3019V12.9055C110.133 12.3707 110.318 11.9196 110.687 11.5519C111.056 11.1843 111.504 11.0005 112.03 11.0005H117.772Z" fill="white"/>
<path fill-rule="evenodd" clip-rule="evenodd" d="M9.64585 138.814C10.1501 141.807 10.7957 144.827 12.1984 147.48C13.6019 150.135 15.87 152.413 18.669 153.128C19.9384 153.453 21.2604 153.448 22.5653 153.411C23.9987 153.371 25.4944 153.275 26.7299 152.508C28.3394 151.507 29.183 149.577 29.8367 147.731C30.9429 144.607 31.7824 141.378 32.3424 138.096C32.6648 136.201 32.8741 134.146 32.0361 132.436C30.9001 130.121 28.2392 129.188 25.7998 128.768C21.7476 128.07 16.165 127.713 12.2824 129.455C8.89116 130.976 9.09559 135.547 9.64585 138.814Z" fill="white"/>
<path fill-rule="evenodd" clip-rule="evenodd" d="M18.7567 133.005C21.9675 133.201 25.4478 132.685 27.4695 131.539C27.8745 131.311 28.2335 131.016 28.0431 130.737C27.8164 130.406 26.9621 130.268 26.2158 130.189C22.3556 129.77 18.0806 129.58 14.3026 130.254C8.76589 131.24 15.8185 132.824 18.7567 133.005Z" fill="#32373F"/>
<path fill-rule="evenodd" clip-rule="evenodd" d="M8.71672 72.2461C8.71672 72.2461 3.41662 96.3894 11.808 112.788L20.1993 129.189C20.1993 129.189 22.4073 88.1895 8.71672 72.2461Z" fill="white" fill-opacity="0.5"/>
<path fill-rule="evenodd" clip-rule="evenodd" d="M16.3686 66.4224C16.3686 66.4224 13.7047 112.36 19.9206 129.189C19.9206 129.189 23.9173 88.2541 16.3686 66.4224Z" fill="white"/>
<path fill-rule="evenodd" clip-rule="evenodd" d="M19.8644 129.189H21.2571C23.3065 120.075 29.4381 90.5555 26.1976 76.7759C26.1976 76.7759 15.9061 115.521 18.4788 124.181C19.1069 126.453 19.5499 128.054 19.8644 129.189Z" fill="white" fill-opacity="0.5"/>
<path d="M202.109 52.3526C202.177 52.3729 202.264 52.3897 202.372 52.4032C202.48 52.4167 202.551 52.4639 202.585 52.5447V53.6771C202.571 53.7782 202.512 53.8322 202.408 53.8389C202.303 53.8456 202.217 53.8591 202.15 53.8793C201.961 53.9063 201.787 53.9737 201.629 54.0816C201.471 54.1894 201.341 54.3242 201.24 54.486C201.139 54.6477 201.073 54.823 201.043 55.0117C201.012 55.2005 201.021 55.3824 201.068 55.5577C201.122 55.6521 201.174 55.7464 201.225 55.8408C201.275 55.9352 201.334 56.0228 201.402 56.1037C201.422 56.1239 201.439 56.1475 201.452 56.1744C201.466 56.2014 201.472 56.2216 201.472 56.2351C201.472 56.2553 201.466 56.2789 201.452 56.3059C201.439 56.3328 201.422 56.3531 201.402 56.3666C201.334 56.434 201.267 56.4997 201.199 56.5637C201.132 56.6277 201.065 56.6901 200.997 56.7508C200.93 56.8182 200.862 56.8839 200.795 56.9479C200.728 57.0119 200.66 57.0777 200.593 57.1451C200.525 57.2057 200.458 57.2175 200.391 57.1805C200.323 57.1434 200.259 57.108 200.198 57.0743C200.111 57.0136 200.016 56.9597 199.915 56.9125C199.814 56.8653 199.706 56.835 199.592 56.8215C199.39 56.7878 199.186 56.7962 198.98 56.8468C198.775 56.8974 198.594 56.9968 198.439 57.1451C198.304 57.2731 198.197 57.4113 198.116 57.5596C198.035 57.7079 197.988 57.8697 197.974 58.0449C197.974 58.0786 197.966 58.1106 197.949 58.141C197.932 58.1713 197.917 58.1932 197.903 58.2067C197.883 58.2269 197.858 58.2438 197.827 58.2572C197.797 58.2707 197.765 58.2775 197.731 58.2775H196.589C196.555 58.2775 196.523 58.2707 196.493 58.2572C196.463 58.2438 196.437 58.2269 196.417 58.2067C196.383 58.1932 196.365 58.1713 196.361 58.141C196.358 58.1106 196.356 58.0786 196.356 58.0449C196.323 57.8697 196.269 57.7079 196.195 57.5596C196.12 57.4113 196.016 57.2731 195.881 57.1451C195.733 57.017 195.556 56.9226 195.35 56.862C195.145 56.8013 194.941 56.7878 194.739 56.8215L194.42 56.9277C194.309 56.9648 194.213 57.0136 194.132 57.0743C194.065 57.108 193.997 57.1434 193.93 57.1805C193.862 57.2175 193.795 57.2057 193.728 57.1451L192.919 56.3666C192.899 56.3531 192.882 56.3328 192.868 56.3059C192.855 56.2789 192.848 56.2553 192.848 56.2351C192.848 56.2216 192.855 56.2014 192.868 56.1744C192.882 56.1475 192.899 56.1239 192.919 56.1037C193 56.0228 193.067 55.9352 193.121 55.8408C193.175 55.7464 193.219 55.6521 193.252 55.5577C193.306 55.3959 193.318 55.2241 193.288 55.0421C193.258 54.8601 193.202 54.6882 193.121 54.5264C193.033 54.3647 192.912 54.2282 192.757 54.1169C192.602 54.0057 192.43 53.9265 192.241 53.8793C192.161 53.8591 192.071 53.8456 191.973 53.8389C191.876 53.8322 191.82 53.7782 191.807 53.6771V52.5852C191.82 52.4841 191.879 52.4302 191.984 52.4234C192.088 52.4167 192.174 52.4032 192.241 52.383C192.43 52.3358 192.602 52.2532 192.757 52.1353C192.912 52.0173 193.033 51.8842 193.121 51.7359C193.202 51.5943 193.258 51.4309 193.288 51.2455C193.318 51.0602 193.306 50.8799 193.252 50.7046C193.205 50.6102 193.155 50.5159 193.101 50.4215C193.047 50.3271 192.986 50.2395 192.919 50.1586C192.899 50.1384 192.882 50.1199 192.868 50.103C192.855 50.0862 192.848 50.0609 192.848 50.0272C192.848 50.007 192.855 49.9834 192.868 49.9564C192.882 49.9295 192.899 49.9092 192.919 49.8958C192.986 49.8284 193.054 49.7626 193.121 49.6986C193.188 49.6346 193.256 49.5722 193.323 49.5116C193.391 49.4442 193.458 49.3784 193.525 49.3144C193.593 49.2504 193.66 49.1847 193.728 49.1172C193.795 49.0566 193.862 49.0448 193.93 49.0819C193.997 49.1189 194.065 49.1543 194.132 49.188C194.213 49.2487 194.304 49.3026 194.405 49.3498C194.506 49.397 194.617 49.4273 194.739 49.4408C194.941 49.4745 195.145 49.4661 195.35 49.4155C195.556 49.365 195.733 49.2655 195.881 49.1172C196.016 48.9892 196.124 48.851 196.205 48.7027C196.286 48.5544 196.336 48.3927 196.356 48.2174C196.356 48.1837 196.363 48.1517 196.377 48.1214C196.39 48.091 196.404 48.0691 196.417 48.0556C196.437 48.0354 196.463 48.0186 196.493 48.0051C196.523 47.9916 196.555 47.9849 196.589 47.9849H197.772C197.806 47.9849 197.833 47.9916 197.853 48.0051C197.873 48.0186 197.9 48.0354 197.934 48.0556C197.967 48.0691 197.988 48.091 197.994 48.1214C198.001 48.1517 198.004 48.1837 198.004 48.2174C198.038 48.3927 198.092 48.5544 198.166 48.7027C198.24 48.851 198.345 48.9892 198.48 49.1172C198.628 49.2453 198.805 49.3397 199.01 49.4003C199.216 49.461 199.42 49.4745 199.622 49.4408C199.723 49.4071 199.828 49.3717 199.936 49.3346C200.043 49.2976 200.141 49.2487 200.229 49.188C200.296 49.1543 200.364 49.1189 200.431 49.0819C200.498 49.0448 200.566 49.0566 200.633 49.1172L201.442 49.8654C201.456 49.8789 201.469 49.8958 201.482 49.916C201.496 49.9362 201.503 49.9632 201.503 49.9969C201.503 50.0104 201.496 50.0306 201.482 50.0575C201.469 50.0845 201.456 50.1047 201.442 50.1182C201.354 50.1991 201.284 50.2867 201.23 50.3811C201.176 50.4754 201.132 50.5732 201.098 50.6743C201.051 50.8361 201.041 51.0079 201.068 51.1899C201.095 51.3719 201.152 51.5438 201.24 51.7056C201.321 51.8673 201.44 52.0038 201.599 52.115C201.757 52.2263 201.927 52.3055 202.109 52.3526ZM197.165 55.5274C197.509 55.5274 197.833 55.4633 198.136 55.3353C198.439 55.2139 198.704 55.0437 198.93 54.8247C199.155 54.6056 199.336 54.3478 199.47 54.0512C199.605 53.7546 199.679 53.4378 199.693 53.1008C199.693 52.6155 199.551 52.1723 199.268 51.7713C198.985 51.3702 198.608 51.0787 198.136 50.8967C197.664 50.7012 197.18 50.6541 196.685 50.7552C196.19 50.8563 195.763 51.0753 195.406 51.4124C195.055 51.7561 194.833 52.1656 194.739 52.6408C194.644 53.116 194.688 53.5828 194.87 54.0411C195.059 54.4927 195.362 54.8533 195.78 55.1229C196.198 55.3926 196.66 55.5274 197.165 55.5274Z" fill="white"/>
<path fill-rule="evenodd" clip-rule="evenodd" d="M90.7008 162.487C69.3477 162.487 52.0376 160.459 52.0376 157.958C52.0376 155.456 69.3477 153.428 90.7008 153.428C112.054 153.428 112.054 162.487 90.7008 162.487Z" fill="#E1EDF8" fill-opacity="0.3"/>
<path fill-rule="evenodd" clip-rule="evenodd" d="M157.026 166.046C135.673 166.046 118.363 164.018 118.363 161.517C118.363 159.015 135.673 156.987 157.026 156.987C178.38 156.987 178.38 166.046 157.026 166.046Z" fill="#E1EDF8" fill-opacity="0.3"/>
<path fill-rule="evenodd" clip-rule="evenodd" d="M76.239 147.102C76.3994 146.634 76.9103 146.461 77.2574 146.767C77.9389 147.367 79.1601 148.097 80.9661 147.917C82.8426 147.731 83.5487 146.636 83.8152 145.85C83.956 145.437 84.3575 145.226 84.7131 145.403L96.0922 151.071C96.7839 151.416 97.3228 152.059 97.591 152.859C97.8431 153.611 97.3364 154.418 96.6244 154.399L76.9612 153.86C76.188 153.839 75.5948 153.087 75.661 152.213L75.9877 147.92C75.9937 147.848 76.0073 147.779 76.031 147.711L76.239 147.102Z" fill="#32373F"/>
<path fill-rule="evenodd" clip-rule="evenodd" d="M63.3284 148.72C63.4919 148.252 64.0098 148.079 64.3616 148.385C65.0524 148.985 66.2903 149.714 68.1217 149.535C70.0228 149.349 70.7394 148.253 71.0087 147.468C71.1506 147.055 71.5584 146.843 71.9188 147.021L83.4529 152.689C84.1531 153.033 84.7002 153.677 84.9721 154.476C85.2276 155.228 84.714 156.036 83.9923 156.016L63.7156 155.477C62.9302 155.456 62.3288 154.704 62.3959 153.83L63.0747 149.537C63.0798 149.466 63.0953 149.396 63.1177 149.329L63.3284 148.72Z" fill="#32373F"/>
<path fill-rule="evenodd" clip-rule="evenodd" d="M160.854 152.8C160.705 152.365 160.232 152.204 159.91 152.489C159.279 153.047 158.147 153.724 156.474 153.557C154.735 153.384 154.081 152.366 153.835 151.637C153.705 151.254 153.332 151.057 153.002 151.222L142.46 156.485C141.82 156.806 141.32 157.403 141.072 158.146C140.838 158.844 141.307 159.594 141.966 159.575L160.184 159.076C160.901 159.056 161.451 158.358 161.389 157.546L161.086 153.56C161.081 153.494 161.068 153.429 161.047 153.367L160.854 152.8Z" fill="#32373F"/>
<path d="M210.748 71.9116C211.304 71.9116 211.823 72.0163 212.307 72.2257C212.798 72.4351 213.224 72.7238 213.585 73.0921C213.946 73.453 214.231 73.8754 214.441 74.3591C214.65 74.8429 214.755 75.3627 214.755 75.9186C214.755 76.4168 214.668 76.8897 214.495 77.3373C214.329 77.7777 214.098 78.1748 213.802 78.5286L213.964 78.691H214.452L217.527 81.7666L216.607 82.698L213.531 79.6115V79.1242L213.358 78.9618C213.011 79.2578 212.614 79.4924 212.166 79.6657C211.719 79.839 211.25 79.9256 210.759 79.9256C210.203 79.9256 209.683 79.8209 209.199 79.6115C208.708 79.4022 208.282 79.117 207.921 78.756C207.56 78.3878 207.275 77.9618 207.066 77.4781C206.856 76.9944 206.752 76.4745 206.752 75.9186C206.752 75.3627 206.856 74.8429 207.066 74.3591C207.275 73.8754 207.56 73.453 207.921 73.0921C208.282 72.7238 208.708 72.4351 209.199 72.2257C209.683 72.0163 210.199 71.9116 210.748 71.9116ZM210.748 73.1462C210.365 73.1462 210.008 73.2184 209.676 73.3628C209.336 73.5072 209.04 73.7057 208.788 73.9584C208.542 74.2039 208.347 74.4963 208.203 74.8356C208.058 75.175 207.986 75.536 207.986 75.9186C207.986 76.3013 208.058 76.6623 208.203 77.0016C208.347 77.3409 208.542 77.6369 208.788 77.8896C209.04 78.1351 209.336 78.33 209.676 78.4744C210.008 78.6188 210.365 78.691 210.748 78.691C211.138 78.691 211.499 78.6188 211.831 78.4744C212.17 78.33 212.462 78.1351 212.708 77.8896C212.961 77.6369 213.159 77.3409 213.304 77.0016C213.448 76.6623 213.52 76.3013 213.52 75.9186C213.52 75.536 213.448 75.175 213.304 74.8356C213.159 74.4963 212.961 74.2039 212.708 73.9584C212.462 73.7057 212.17 73.5072 211.831 73.3628C211.499 73.2184 211.138 73.1462 210.748 73.1462Z" fill="white"/>
<path d="M182.747 56.2047C189.865 38.2483 213.185 19.055 232.067 29.3172C244.139 35.878 235.269 59.2783 204.748 66.1988C188.333 69.9209 210.28 94.9191 201.768 97.1999C187.366 101.059 165.265 90.605 148.986 79.7665C138.589 72.8439 126.937 65.5166 123.378 62.6047" stroke="#32373F" stroke-dasharray="4 4"/>
<path d="M126.076 58.2487L124.064 61.7336L116.018 58.4196L122.911 63.7299L120.899 67.2148L113.024 56.6907L126.076 58.2487Z" fill="white"/>
<path d="M49.5534 16.5735C49.2141 16.5735 48.9217 16.4544 48.6762 16.2161C48.4379 15.9707 48.3188 15.6783 48.3188 15.3389C48.3188 14.9996 48.4379 14.7108 48.6762 14.4725C48.9217 14.2271 49.2141 14.1043 49.5534 14.1043C49.8927 14.1043 50.1815 14.2271 50.4198 14.4725C50.6653 14.7108 50.788 14.9996 50.788 15.3389C50.788 15.6783 50.6653 15.9707 50.4198 16.2161C50.1815 16.4544 49.8927 16.5735 49.5534 16.5735ZM53.0297 14.1043C52.907 13.7506 52.7301 13.4221 52.4991 13.1188C52.2753 12.8156 52.0117 12.5557 51.7085 12.3391C51.4053 12.1153 51.0696 11.9456 50.7014 11.8301C50.3404 11.7074 49.9577 11.646 49.5534 11.646C49.0408 11.646 48.5607 11.7435 48.1131 11.9384C47.6654 12.1261 47.2719 12.3896 46.9326 12.729C46.6005 13.0611 46.3406 13.4509 46.1529 13.8986C45.9579 14.3462 45.8605 14.8263 45.8605 15.3389C45.8605 15.8515 45.9579 16.3316 46.1529 16.7793C46.3406 17.2269 46.6005 17.6204 46.9326 17.9597C47.2719 18.2918 47.6654 18.5517 48.1131 18.7395C48.5607 18.9344 49.0408 19.0319 49.5534 19.0319C49.9577 19.0319 50.3404 18.9705 50.7014 18.8477C51.0696 18.7322 51.4053 18.5662 51.7085 18.3496C52.0117 18.1258 52.2753 17.8622 52.4991 17.559C52.7301 17.2558 52.907 16.9273 53.0297 16.5735H55.7155V19.0319H58.1738V16.5735H59.4084V14.1043H53.0297Z" fill="white"/>
<path fill-rule="evenodd" clip-rule="evenodd" d="M159.216 116C159.978 116 160.597 115.382 160.597 114.62C160.597 113.857 159.978 113.239 159.216 113.239C158.453 113.239 157.835 113.857 157.835 114.62C157.835 115.382 158.453 116 159.216 116Z" fill="#32373F"/>
<path fill-rule="evenodd" clip-rule="evenodd" d="M162.234 116C162.996 116 163.615 115.382 163.615 114.62C163.615 113.857 162.996 113.239 162.234 113.239C161.471 113.239 160.853 113.857 160.853 114.62C160.853 115.382 161.471 116 162.234 116Z" fill="#32373F"/>
<path fill-rule="evenodd" clip-rule="evenodd" d="M165.252 116C166.014 116 166.633 115.382 166.633 114.62C166.633 113.857 166.014 113.239 165.252 113.239C164.489 113.239 163.871 113.857 163.871 114.62C163.871 115.382 164.489 116 165.252 116Z" fill="#32373F"/>
<path fill-rule="evenodd" clip-rule="evenodd" d="M168.27 116C169.032 116 169.651 115.382 169.651 114.62C169.651 113.857 169.032 113.239 168.27 113.239C167.507 113.239 166.889 113.857 166.889 114.62C166.889 115.382 167.507 116 168.27 116Z" fill="#32373F"/>
<path fill-rule="evenodd" clip-rule="evenodd" d="M171.288 116C172.05 116 172.668 115.382 172.668 114.62C172.668 113.857 172.05 113.239 171.288 113.239C170.525 113.239 169.907 113.857 169.907 114.62C169.907 115.382 170.525 116 171.288 116Z" fill="#32373F"/>
<path fill-rule="evenodd" clip-rule="evenodd" d="M174.306 116C175.068 116 175.687 115.382 175.687 114.62C175.687 113.857 175.068 113.239 174.306 113.239C173.543 113.239 172.925 113.857 172.925 114.62C172.925 115.382 173.543 116 174.306 116Z" fill="#32373F"/>
<path fill-rule="evenodd" clip-rule="evenodd" d="M177.324 116C178.086 116 178.704 115.382 178.704 114.62C178.704 113.857 178.086 113.239 177.324 113.239C176.561 113.239 175.943 113.857 175.943 114.62C175.943 115.382 176.561 116 177.324 116Z" fill="#32373F"/>
<path fill-rule="evenodd" clip-rule="evenodd" d="M180.342 116C181.104 116 181.722 115.382 181.722 114.62C181.722 113.857 181.104 113.239 180.342 113.239C179.579 113.239 178.961 113.857 178.961 114.62C178.961 115.382 179.579 116 180.342 116Z" fill="#32373F"/>
<path fill-rule="evenodd" clip-rule="evenodd" d="M183.36 116C184.122 116 184.74 115.382 184.74 114.62C184.74 113.857 184.122 113.239 183.36 113.239C182.597 113.239 181.979 113.857 181.979 114.62C181.979 115.382 182.597 116 183.36 116Z" fill="#32373F"/>
<path fill-rule="evenodd" clip-rule="evenodd" d="M186.377 116C187.14 116 187.758 115.382 187.758 114.62C187.758 113.857 187.14 113.239 186.377 113.239C185.615 113.239 184.997 113.857 184.997 114.62C184.997 115.382 185.615 116 186.377 116Z" fill="#32373F"/>
<path fill-rule="evenodd" clip-rule="evenodd" d="M189.396 116C190.158 116 190.776 115.382 190.776 114.62C190.776 113.857 190.158 113.239 189.396 113.239C188.633 113.239 188.015 113.857 188.015 114.62C188.015 115.382 188.633 116 189.396 116Z" fill="#32373F"/>
<path fill-rule="evenodd" clip-rule="evenodd" d="M192.413 116C193.176 116 193.794 115.382 193.794 114.62C193.794 113.857 193.176 113.239 192.413 113.239C191.651 113.239 191.033 113.857 191.033 114.62C191.033 115.382 191.651 116 192.413 116Z" fill="#32373F"/>
<path fill-rule="evenodd" clip-rule="evenodd" d="M160.833 112.765C161.596 112.765 162.214 112.147 162.214 111.384C162.214 110.622 161.596 110.003 160.833 110.003C160.071 110.003 159.453 110.622 159.453 111.384C159.453 112.147 160.071 112.765 160.833 112.765Z" fill="#32373F"/>
<path fill-rule="evenodd" clip-rule="evenodd" d="M163.851 112.765C164.614 112.765 165.232 112.147 165.232 111.384C165.232 110.622 164.614 110.003 163.851 110.003C163.089 110.003 162.47 110.622 162.47 111.384C162.47 112.147 163.089 112.765 163.851 112.765Z" fill="#32373F"/>
<path fill-rule="evenodd" clip-rule="evenodd" d="M166.869 112.765C167.632 112.765 168.25 112.147 168.25 111.384C168.25 110.622 167.632 110.003 166.869 110.003C166.107 110.003 165.489 110.622 165.489 111.384C165.489 112.147 166.107 112.765 166.869 112.765Z" fill="#32373F"/>
<path fill-rule="evenodd" clip-rule="evenodd" d="M169.887 112.765C170.65 112.765 171.268 112.147 171.268 111.384C171.268 110.622 170.65 110.003 169.887 110.003C169.125 110.003 168.506 110.622 168.506 111.384C168.506 112.147 169.125 112.765 169.887 112.765Z" fill="#32373F"/>
<path fill-rule="evenodd" clip-rule="evenodd" d="M172.905 112.765C173.668 112.765 174.286 112.147 174.286 111.384C174.286 110.622 173.668 110.003 172.905 110.003C172.143 110.003 171.524 110.622 171.524 111.384C171.524 112.147 172.143 112.765 172.905 112.765Z" fill="#32373F"/>
<path fill-rule="evenodd" clip-rule="evenodd" d="M175.923 112.765C176.686 112.765 177.304 112.147 177.304 111.384C177.304 110.622 176.686 110.003 175.923 110.003C175.161 110.003 174.542 110.622 174.542 111.384C174.542 112.147 175.161 112.765 175.923 112.765Z" fill="#32373F"/>
<path fill-rule="evenodd" clip-rule="evenodd" d="M178.941 112.765C179.704 112.765 180.322 112.147 180.322 111.384C180.322 110.622 179.704 110.003 178.941 110.003C178.179 110.003 177.56 110.622 177.56 111.384C177.56 112.147 178.179 112.765 178.941 112.765Z" fill="#32373F"/>
<path fill-rule="evenodd" clip-rule="evenodd" d="M181.959 112.765C182.722 112.765 183.34 112.147 183.34 111.384C183.34 110.622 182.722 110.003 181.959 110.003C181.197 110.003 180.578 110.622 180.578 111.384C180.578 112.147 181.197 112.765 181.959 112.765Z" fill="#32373F"/>
<path fill-rule="evenodd" clip-rule="evenodd" d="M184.977 112.765C185.74 112.765 186.358 112.147 186.358 111.384C186.358 110.622 185.74 110.003 184.977 110.003C184.215 110.003 183.596 110.622 183.596 111.384C183.596 112.147 184.215 112.765 184.977 112.765Z" fill="#32373F"/>
<path fill-rule="evenodd" clip-rule="evenodd" d="M187.995 112.765C188.758 112.765 189.376 112.147 189.376 111.384C189.376 110.622 188.758 110.003 187.995 110.003C187.233 110.003 186.614 110.622 186.614 111.384C186.614 112.147 187.233 112.765 187.995 112.765Z" fill="#32373F"/>
<path fill-rule="evenodd" clip-rule="evenodd" d="M191.013 112.765C191.776 112.765 192.394 112.147 192.394 111.384C192.394 110.622 191.776 110.003 191.013 110.003C190.251 110.003 189.632 110.622 189.632 111.384C189.632 112.147 190.251 112.765 191.013 112.765Z" fill="#32373F"/>
<path fill-rule="evenodd" clip-rule="evenodd" d="M194.031 112.765C194.793 112.765 195.412 112.147 195.412 111.384C195.412 110.622 194.793 110.003 194.031 110.003C193.269 110.003 192.65 110.622 192.65 111.384C192.65 112.147 193.269 112.765 194.031 112.765Z" fill="#32373F"/>
<path fill-rule="evenodd" clip-rule="evenodd" d="M160.833 119.236C161.596 119.236 162.214 118.618 162.214 117.855C162.214 117.092 161.596 116.474 160.833 116.474C160.071 116.474 159.453 117.092 159.453 117.855C159.453 118.618 160.071 119.236 160.833 119.236Z" fill="#32373F"/>
<path fill-rule="evenodd" clip-rule="evenodd" d="M163.851 119.236C164.614 119.236 165.232 118.618 165.232 117.855C165.232 117.092 164.614 116.474 163.851 116.474C163.089 116.474 162.47 117.092 162.47 117.855C162.47 118.618 163.089 119.236 163.851 119.236Z" fill="#32373F"/>
<path fill-rule="evenodd" clip-rule="evenodd" d="M166.869 119.236C167.632 119.236 168.25 118.618 168.25 117.855C168.25 117.092 167.632 116.474 166.869 116.474C166.107 116.474 165.489 117.092 165.489 117.855C165.489 118.618 166.107 119.236 166.869 119.236Z" fill="#32373F"/>
<path fill-rule="evenodd" clip-rule="evenodd" d="M169.887 119.236C170.65 119.236 171.268 118.618 171.268 117.855C171.268 117.092 170.65 116.474 169.887 116.474C169.125 116.474 168.506 117.092 168.506 117.855C168.506 118.618 169.125 119.236 169.887 119.236Z" fill="#32373F"/>
<path fill-rule="evenodd" clip-rule="evenodd" d="M172.905 119.236C173.668 119.236 174.286 118.618 174.286 117.855C174.286 117.092 173.668 116.474 172.905 116.474C172.143 116.474 171.524 117.092 171.524 117.855C171.524 118.618 172.143 119.236 172.905 119.236Z" fill="#32373F"/>
<path fill-rule="evenodd" clip-rule="evenodd" d="M175.923 119.236C176.686 119.236 177.304 118.618 177.304 117.855C177.304 117.092 176.686 116.474 175.923 116.474C175.161 116.474 174.542 117.092 174.542 117.855C174.542 118.618 175.161 119.236 175.923 119.236Z" fill="#32373F"/>
<path fill-rule="evenodd" clip-rule="evenodd" d="M178.941 119.236C179.704 119.236 180.322 118.618 180.322 117.855C180.322 117.092 179.704 116.474 178.941 116.474C178.179 116.474 177.56 117.092 177.56 117.855C177.56 118.618 178.179 119.236 178.941 119.236Z" fill="#32373F"/>
<path fill-rule="evenodd" clip-rule="evenodd" d="M181.959 119.236C182.722 119.236 183.34 118.618 183.34 117.855C183.34 117.092 182.722 116.474 181.959 116.474C181.197 116.474 180.578 117.092 180.578 117.855C180.578 118.618 181.197 119.236 181.959 119.236Z" fill="#32373F"/>
<path fill-rule="evenodd" clip-rule="evenodd" d="M184.977 119.236C185.74 119.236 186.358 118.618 186.358 117.855C186.358 117.092 185.74 116.474 184.977 116.474C184.215 116.474 183.596 117.092 183.596 117.855C183.596 118.618 184.215 119.236 184.977 119.236Z" fill="#32373F"/>
<path fill-rule="evenodd" clip-rule="evenodd" d="M187.995 119.236C188.758 119.236 189.376 118.618 189.376 117.855C189.376 117.092 188.758 116.474 187.995 116.474C187.233 116.474 186.614 117.092 186.614 117.855C186.614 118.618 187.233 119.236 187.995 119.236Z" fill="#32373F"/>
<path fill-rule="evenodd" clip-rule="evenodd" d="M191.013 119.236C191.776 119.236 192.394 118.618 192.394 117.855C192.394 117.092 191.776 116.474 191.013 116.474C190.251 116.474 189.632 117.092 189.632 117.855C189.632 118.618 190.251 119.236 191.013 119.236Z" fill="#32373F"/>
<path fill-rule="evenodd" clip-rule="evenodd" d="M194.031 119.236C194.793 119.236 195.412 118.618 195.412 117.855C195.412 117.092 194.793 116.474 194.031 116.474C193.269 116.474 192.65 117.092 192.65 117.855C192.65 118.618 193.269 119.236 194.031 119.236Z" fill="#32373F"/>
<path fill-rule="evenodd" clip-rule="evenodd" d="M117.561 135.978C118.944 135.796 120.299 135.967 121.653 135.71C120.058 138.329 117.272 139.874 114.187 139.84C115.256 138.783 116.482 137.869 117.605 137.098C117.85 136.93 117.636 136.549 117.369 136.695C116.201 137.34 114.844 138.34 113.688 139.541C114.55 137.84 115.297 136.276 117.561 135.978ZM102.309 138.139C105.121 138.54 109.343 139.406 108.524 142.702C107.51 141.632 106.408 140.673 105.285 139.954C105.065 139.813 104.836 140.127 105.011 140.308C106.069 141.402 107.257 142.361 108.322 143.454C105.547 142.934 104.167 140.122 102.309 138.139ZM109.736 130.446C109.149 128.649 108.557 126.631 106.955 125.5C106.758 125.361 106.518 125.674 106.697 125.835C108.347 127.313 109.266 129.776 109.841 132.306L109.842 132.341C109.485 132.096 109.114 131.906 108.706 131.689C107.04 130.8 106.442 129.829 106.366 127.845C106.299 126.083 106.198 124.814 105.352 123.422C107.054 123.944 109.01 124.727 109.832 126.316C110.633 127.867 110.452 129.793 110.045 131.469C109.946 131.126 109.847 130.784 109.736 130.446ZM114.126 123.006C114.282 120.455 116.396 119.557 118.125 118.216C118.595 117.852 118.847 117.391 119.373 117.498C120.127 117.651 119.757 121.254 119.588 121.79C119.286 122.744 118.673 123.603 117.963 124.293C117.758 124.493 116.142 125.741 115.221 126.339C116.062 124.214 116.841 122.104 117.35 120.019C117.42 119.732 116.999 119.618 116.909 119.898C116.268 121.876 115.358 124.029 114.414 126.278L114.378 126.33C114.352 126.366 114.341 126.411 114.34 126.457C114.288 126.581 114.235 126.706 114.183 126.832C114.349 125.524 114.04 124.406 114.126 123.006ZM118.869 127.099C120.574 125.867 122.652 126.251 124.472 125.541C124.325 127.436 123.7 129.218 121.925 130.216C121.019 130.726 119.91 130.997 118.88 131.094C118.675 131.114 118.256 131.068 117.8 131.023C117.383 130.982 116.934 130.941 116.587 130.949C118.218 129.792 119.971 128.873 121.85 128.155C122.152 128.039 122.02 127.547 121.714 127.665C119.798 128.407 117.986 129.349 116.323 130.541C117.201 129.42 117.655 127.976 118.869 127.099ZM115.827 131.51C116.508 131.835 117.646 131.774 118.264 131.755C119.526 131.715 120.834 131.438 121.964 130.863C124.202 129.726 124.973 127.481 125.064 125.097C125.072 124.872 124.82 124.759 124.638 124.853C122.73 125.84 120.411 125.303 118.547 126.622C117.133 127.622 116.702 129.334 115.71 130.665C115.622 130.671 115.534 130.708 115.468 130.798L115.411 130.876C115.368 130.934 115.359 131.005 115.372 131.073C115.335 131.114 115.3 131.156 115.261 131.196C115.214 131.244 115.218 131.31 115.246 131.36C114.299 132.123 113.101 133.09 112.23 134.189C113.026 131.699 114.075 129.213 115.059 126.746C116.604 126.568 118.457 124.792 119.219 123.706C120.758 121.512 120.381 119.04 119.621 116.624C119.569 116.456 119.333 116.366 119.204 116.514C117.806 118.117 115.645 118.896 114.399 120.64C112.909 122.727 114.182 125.302 113.687 127.646C113.669 127.731 113.711 127.793 113.769 127.825C112.687 130.441 111.631 133.159 110.951 135.858C110.817 134.729 110.598 133.611 110.322 132.508C110.366 132.474 110.404 132.43 110.424 132.363C111.032 130.368 111.352 127.945 110.355 126.011C109.318 123.997 106.728 123.178 104.705 122.599C104.472 122.533 104.197 122.825 104.363 123.044C105.509 124.548 105.718 125.992 105.77 127.845C105.793 128.618 105.816 129.431 106.131 130.154C106.867 131.835 108.585 132.02 109.977 132.935C110.281 134.414 110.481 135.89 110.648 137.182C110.064 140.054 109.976 142.882 110.809 145.522C110.273 144.741 109.669 143.969 109.02 143.238C110.601 138.696 104.509 137.799 101.415 137.387C101.145 137.351 100.999 137.756 101.192 137.925C103.513 139.949 105.193 144.099 108.767 143.926C109.719 144.971 110.571 146.093 111.474 147.179C111.952 148.16 112.576 149.11 113.378 150.019C113.486 150.141 113.701 149.978 113.606 149.843C112.489 148.248 111.779 146.642 111.37 145.027C111.526 143.275 112.436 141.737 113.641 140.408C113.682 140.432 113.729 140.451 113.787 140.454C117.457 140.648 120.83 138.698 122.487 135.416C122.595 135.201 122.414 134.907 122.158 134.988C120.087 135.637 117.636 134.835 115.69 135.93C114.129 136.809 113.491 138.801 112.932 140.396C112.049 141.484 111.37 142.692 111.139 143.933C110.657 141.081 111.064 138.208 111.882 135.337C112.804 133.838 114.571 132.468 115.827 131.51Z" fill="white"/>
</svg>
